<?xml version="1.0" encoding="utf-8" standalone="no"?>
<!DOCTYPE svg PUBLIC "-//W3C//DTD SVG 1.1//EN"
  "http://www.w3.org/Graphics/SVG/1.1/DTD/svg11.dtd">
<svg xmlns:xlink="http://www.w3.org/1999/xlink" width="469.19952pt" height="339.59952pt" viewBox="0 0 469.19952 339.59952" xmlns="http://www.w3.org/2000/svg" version="1.1">
 <metadata>
  <rdf:RDF xmlns:dc="http://purl.org/dc/elements/1.1/" xmlns:cc="http://creativecommons.org/ns#" xmlns:rdf="http://www.w3.org/1999/02/22-rdf-syntax-ns#">
   <cc:Work>
    <dc:type rdf:resource="http://purl.org/dc/dcmitype/StillImage"/>
    <dc:date>2026-09-25T18:49:54.530315</dc:date>
    <dc:format>image/svg+xml</dc:format>
    <dc:creator>
     <cc:Agent>
      <dc:title>Matplotlib v3.6.3, https://matplotlib.org/</dc:title>
     </cc:Agent>
    </dc:creator>
   </cc:Work>
  </rdf:RDF>
 </metadata>
 <defs>
  <style type="text/css">*{stroke-linejoin: round; stroke-linecap: butt}</style>
 </defs>
 <g id="figure_1">
  <g id="patch_1">
   <path d="M 0 339.59952 
L 469.19952 339.59952 
L 469.19952 0 
L 0 0 
z
" style="fill: #ffffff"/>
  </g>
  <g id="axes_1">
   <g id="patch_2">
    <path d="M 49.2375 261.186018 
L 461.99952 261.186018 
L 461.99952 23.2625 
L 49.2375 23.2625 
z
" style="fill: #ffffff"/>
   </g>
   <g id="PolyCollection_1">
    <defs>
     <path id="md12c363aa4" d="M 67.99941 -162.887109 
L 67.99941 -126.365656 
L 109.692543 -208.462567 
L 151.385677 -248.371391 
L 193.07881 -276.491769 
L 234.771943 -295.040578 
L 276.465077 -295.911822 
L 318.15821 -295.098824 
L 359.851343 -293.243882 
L 401.544477 -293.546854 
L 443.23761 -294.783894 
L 443.23761 -305.522315 
L 443.23761 -305.522315 
L 401.544477 -301.07187 
L 359.851343 -299.161843 
L 318.15821 -299.15875 
L 276.465077 -299.279157 
L 234.771943 -299.204091 
L 193.07881 -287.285412 
L 151.385677 -266.367577 
L 109.692543 -233.565991 
L 67.99941 -162.887109 
z
"/>
    </defs>
    <g clip-path="url(#pd7068dc59f)">
     <use xlink:href="#md12c363aa4" x="0" y="339.59952" style="fill: #2ca25f; fill-opacity: 0.16"/>
    </g>
   </g>
   <g id="matplotlib.axis_1">
    <g id="xtick_1">
     <g id="line2d_1">
      <defs>
       <path id="m3a0b0ecd27" d="M 0 0 
L 0 3.5 
" style="stroke: #000000"/>
      </defs>
      <g>
       <use xlink:href="#m3a0b0ecd27" x="67.99941" y="261.186018" style="stroke: #000000"/>
      </g>
     </g>
     <g id="text_1">
      <text style="font: 13px 'Arial'" transform="translate(32.444976 308.493203) rotate(-45)">8.0-10.5</text>
     </g>
    </g>
    <g id="xtick_2">
     <g id="line2d_2">
      <g>
       <use xlink:href="#m3a0b0ecd27" x="109.692543" y="261.186018" style="stroke: #000000"/>
      </g>
     </g>
     <g id="text_2">
      <text style="font: 13px 'Arial'" transform="translate(74.816048 307.815265) rotate(-45)">8.8-11.3</text>
     </g>
    </g>
    <g id="xtick_3">
     <g id="line2d_3">
      <g>
       <use xlink:href="#m3a0b0ecd27" x="151.385677" y="261.186018" style="stroke: #000000"/>
      </g>
     </g>
     <g id="text_3">
      <text style="font: 13px 'Arial'" transform="translate(115.831243 308.493203) rotate(-45)">9.7-12.2</text>
     </g>
    </g>
    <g id="xtick_4">
     <g id="line2d_4">
      <g>
       <use xlink:href="#m3a0b0ecd27" x="193.07881" y="261.186018" style="stroke: #000000"/>
      </g>
     </g>
     <g id="text_4">
      <text style="font: 13px 'Arial'" transform="translate(152.412547 313.605033) rotate(-45)">10.5-13.0</text>
     </g>
    </g>
    <g id="xtick_5">
     <g id="line2d_5">
      <g>
       <use xlink:href="#m3a0b0ecd27" x="234.771943" y="261.186018" style="stroke: #000000"/>
      </g>
     </g>
     <g id="text_5">
      <text style="font: 13px 'Arial'" transform="translate(194.783619 312.927094) rotate(-45)">11.3-13.8</text>
     </g>
    </g>
    <g id="xtick_6">
     <g id="line2d_6">
      <g>
       <use xlink:href="#m3a0b0ecd27" x="276.465077" y="261.186018" style="stroke: #000000"/>
      </g>
     </g>
     <g id="text_6">
      <text style="font: 13px 'Arial'" transform="translate(235.798813 313.605033) rotate(-45)">12.2-14.7</text>
     </g>
    </g>
    <g id="xtick_7">
     <g id="line2d_7">
      <g>
       <use xlink:href="#m3a0b0ecd27" x="318.15821" y="261.186018" style="stroke: #000000"/>
      </g>
     </g>
     <g id="text_7">
      <text style="font: 13px 'Arial'" transform="translate(277.491947 313.605033) rotate(-45)">13.0-15.5</text>
     </g>
    </g>
    <g id="xtick_8">
     <g id="line2d_8">
      <g>
       <use xlink:href="#m3a0b0ecd27" x="359.851343" y="261.186018" style="stroke: #000000"/>
      </g>
     </g>
     <g id="text_8">
      <text style="font: 13px 'Arial'" transform="translate(319.18508 313.605033) rotate(-45)">13.8-16.3</text>
     </g>
    </g>
    <g id="xtick_9">
     <g id="line2d_9">
      <g>
       <use xlink:href="#m3a0b0ecd27" x="401.544477" y="261.186018" style="stroke: #000000"/>
      </g>
     </g>
     <g id="text_9">
      <text style="font: 13px 'Arial'" transform="translate(360.878213 313.605033) rotate(-45)">14.7-17.2</text>
     </g>
    </g>
    <g id="xtick_10">
     <g id="line2d_10">
      <g>
       <use xlink:href="#m3a0b0ecd27" x="443.23761" y="261.186018" style="stroke: #000000"/>
      </g>
     </g>
     <g id="text_10">
      <text style="font: 13px 'Arial'" transform="translate(402.571347 313.605033) rotate(-45)">15.5-18.0</text>
     </g>
    </g>
    <g id="text_11">
     <text style="font: 14px 'Arial'; text-anchor: middle" x="255.61851" y="329.452957" transform="rotate(-0 255.61851 329.452957)">age window</text>
    </g>
   </g>
   <g id="matplotlib.axis_2">
    <g id="ytick_1">
     <g id="line2d_11">
      <defs>
       <path id="m0f0b462bcf" d="M 0 0 
L -3.5 0 
" style="stroke: #000000"/>
      </defs>
      <g>
       <use xlink:href="#m0f0b462bcf" x="49.2375" y="250.371312" style="stroke: #000000"/>
      </g>
     </g>
     <g id="text_12">
      <text style="font: 13px 'Arial'; text-anchor: end" x="42.2375" y="255.02389" transform="rotate(-0 42.2375 255.02389)">0.0</text>
     </g>
    </g>
    <g id="ytick_2">
     <g id="line2d_12">
      <g>
       <use xlink:href="#m0f0b462bcf" x="49.2375" y="210.763454" style="stroke: #000000"/>
      </g>
     </g>
     <g id="text_13">
      <text style="font: 13px 'Arial'; text-anchor: end" x="42.2375" y="215.416032" transform="rotate(-0 42.2375 215.416032)">0.2</text>
     </g>
    </g>
    <g id="ytick_3">
     <g id="line2d_13">
      <g>
       <use xlink:href="#m0f0b462bcf" x="49.2375" y="171.155597" style="stroke: #000000"/>
      </g>
     </g>
     <g id="text_14">
      <text style="font: 13px 'Arial'; text-anchor: end" x="42.2375" y="175.808175" transform="rotate(-0 42.2375 175.808175)">0.4</text>
     </g>
    </g>
    <g id="ytick_4">
     <g id="line2d_14">
      <g>
       <use xlink:href="#m0f0b462bcf" x="49.2375" y="131.547739" style="stroke: #000000"/>
      </g>
     </g>
     <g id="text_15">
      <text style="font: 13px 'Arial'; text-anchor: end" x="42.2375" y="136.200317" transform="rotate(-0 42.2375 136.200317)">0.6</text>
     </g>
    </g>
    <g id="ytick_5">
     <g id="line2d_15">
      <g>
       <use xlink:href="#m0f0b462bcf" x="49.2375" y="91.939881" style="stroke: #000000"/>
      </g>
     </g>
     <g id="text_16">
      <text style="font: 13px 'Arial'; text-anchor: end" x="42.2375" y="96.592459" transform="rotate(-0 42.2375 96.592459)">0.8</text>
     </g>
    </g>
    <g id="ytick_6">
     <g id="line2d_16">
      <g>
       <use xlink:href="#m0f0b462bcf" x="49.2375" y="52.332023" style="stroke: #000000"/>
      </g>
     </g>
     <g id="text_17">
      <text style="font: 13px 'Arial'; text-anchor: end" x="42.2375" y="56.984601" transform="rotate(-0 42.2375 56.984601)">1.0</text>
     </g>
    </g>
    <g id="text_18">
     <text style="font: 14px 'Arial'; text-anchor: middle" x="17.220938" y="142.224259" transform="rotate(-90 17.220938 142.224259)">conditional coupling</text>
    </g>
   </g>
   <g id="line2d_17">
    <path d="M 67.99941 194.973137 
L 109.692543 118.585241 
L 151.385677 82.230036 
L 193.07881 57.710929 
L 234.771943 42.477185 
L 276.465077 42.00403 
L 318.15821 42.470733 
L 359.851343 43.396657 
L 401.544477 42.290158 
L 443.23761 39.446416 
" clip-path="url(#pd7068dc59f)" style="fill: none; stroke: #2ca25f; stroke-width: 2; stroke-linecap: square"/>
   </g>
   <g id="line2d_18">
    <path d="M 49.2375 250.371312 
L 461.99952 250.371312 
" clip-path="url(#pd7068dc59f)" style="fill: none; stroke: #8f8f8f; stroke-linecap: square"/>
   </g>
   <g id="patch_3">
    <path d="M 49.2375 261.186018 
L 49.2375 23.2625 
" style="fill: none; stroke: #000000; stroke-width: 1.1; stroke-linejoin: miter; stroke-linecap: square"/>
   </g>
   <g id="patch_4">
    <path d="M 49.2375 261.186018 
L 461.99952 261.186018 
" style="fill: none; stroke: #000000; stroke-width: 1.1; stroke-linejoin: miter; stroke-linecap: square"/>
   </g>
   <g id="PathCollection_1">
    <defs>
     <path id="m2f54d2da2d" d="M 0 3 
C 0.795609 3 1.55874 2.683901 2.12132 2.12132 
C 2.683901 1.55874 3 0.795609 3 0 
C 3 -0.795609 2.683901 -1.55874 2.12132 -2.12132 
C 1.55874 -2.683901 0.795609 -3 0 -3 
C -0.795609 -3 -1.55874 -2.683901 -2.12132 -2.12132 
C -2.683901 -1.55874 -3 -0.795609 -3 0 
C -3 0.795609 -2.683901 1.55874 -2.12132 2.12132 
C -1.55874 2.683901 -0.795609 3 0 3 
z
" style="stroke: #000000; stroke-width: 0.5"/>
    </defs>
    <g clip-path="url(#pd7068dc59f)">
     <use xlink:href="#m2f54d2da2d" x="67.99941" y="194.973137" style="fill: #2ca25f; stroke: #000000; stroke-width: 0.5"/>
     <use xlink:href="#m2f54d2da2d" x="109.692543" y="118.585241" style="fill: #2ca25f; stroke: #000000; stroke-width: 0.5"/>
     <use xlink:href="#m2f54d2da2d" x="151.385677" y="82.230036" style="fill: #2ca25f; stroke: #000000; stroke-width: 0.5"/>
     <use xlink:href="#m2f54d2da2d" x="193.07881" y="57.710929" style="fill: #2ca25f; stroke: #000000; stroke-width: 0.5"/>
     <use xlink:href="#m2f54d2da2d" x="234.771943" y="42.477185" style="fill: #2ca25f; stroke: #000000; stroke-width: 0.5"/>
     <use xlink:href="#m2f54d2da2d" x="276.465077" y="42.00403" style="fill: #2ca25f; stroke: #000000; stroke-width: 0.5"/>
     <use xlink:href="#m2f54d2da2d" x="318.15821" y="42.470733" style="fill: #2ca25f; stroke: #000000; stroke-width: 0.5"/>
     <use xlink:href="#m2f54d2da2d" x="359.851343" y="43.396657" style="fill: #2ca25f; stroke: #000000; stroke-width: 0.5"/>
     <use xlink:href="#m2f54d2da2d" x="401.544477" y="42.290158" style="fill: #2ca25f; stroke: #000000; stroke-width: 0.5"/>
     <use xlink:href="#m2f54d2da2d" x="443.23761" y="39.446416" style="fill: #2ca25f; stroke: #000000; stroke-width: 0.5"/>
    </g>
   </g>
   <g id="text_19">
    <text style="font: 14px 'Arial'; text-anchor: middle" x="255.61851" y="17.2625" transform="rotate(-0 255.61851 17.2625)">Tian_2: sliding-window coupling</text>
   </g>
  </g>
 </g>
 <defs>
  <clipPath id="pd7068dc59f">
   <rect x="49.2375" y="23.2625" width="412.76202" height="237.923518"/>
  </clipPath>
 </defs>
</svg>
